<svg width="58" height="58" viewBox="0 0 58 58" fill="none" xmlns="http://www.w3.org/2000/svg">
    <rect width="58" height="58" rx="7" fill="#056676"/>
    <g clip-path="url(#clip0)">
        <path d="M48.8768 34.7568C48.1933 33.9446 46.8238 33.7315 45.8088 34.2586L45.2743 34.474L42.5062 32.7815C39.7469 31.0944 36.4079 30.1759 33.015 30.0521C33.1772 29.3757 33.6194 28.4697 34.7517 27.6012C35.0863 27.672 36.3195 27.6953 36.7049 27.6953C38.9627 27.6953 40.9615 27.3575 42.6641 26.6867C42.988 26.5591 43.1155 26.2544 42.9491 26.0061C42.7826 25.7577 42.385 25.66 42.0615 25.7876C40.4059 26.4399 38.4117 26.737 36.1238 26.6757C40.2549 24.0302 44.8806 21.9319 46.9362 21.0478C46.5823 21.9695 45.8484 23.3337 44.3767 24.4818C44.1216 24.6809 44.1253 25.0009 44.3849 25.1966C44.6444 25.392 45.0617 25.3895 45.3171 25.1903C47.5175 23.4735 48.2531 21.3426 48.4672 20.5061C48.6049 19.9681 48.0048 19.4917 47.2747 19.4989C40.8122 19.5935 34.7111 21.7123 33.9011 26.6828C33.8931 26.7317 33.8919 26.7804 33.8957 26.8288C33.4956 27.1278 33.1638 27.432 32.8894 27.734V23.5291C35.7435 21.5369 36.6441 18.9078 35.9391 15.9611C35.3466 13.4848 33.7465 11.3617 33.086 10.5639C33.086 10.5639 33.086 10.5639 33.086 10.5639C32.698 10.095 31.786 10.0683 31.3759 10.5639C30.7154 11.3617 29.1153 13.4847 28.5228 15.9611C27.8195 18.9004 28.7122 21.5321 31.571 23.5283V27.6485C31.3126 27.3746 31.0064 27.0996 30.644 26.8288C30.6478 26.7804 30.6466 26.7317 30.6386 26.6828C29.8298 21.7198 23.7251 19.5933 17.265 19.4989C16.5282 19.4934 15.9355 19.971 16.0725 20.506C17.1003 24.5221 21.0621 27.6963 27.8086 27.6963C28.1962 27.6963 29.455 27.6715 29.788 27.6011C30.9226 28.4703 31.3656 29.3734 31.5274 30.0488C28.9171 30.1323 26.3206 30.6867 23.9761 31.7249C23.7103 31.6524 23.4688 31.591 23.2669 31.5448C21.296 31.0921 19.1049 31.2889 17.255 32.0842L12.5185 34.1205C11.9292 33.6606 10.9928 33.5439 10.229 33.8822L8.69332 34.562C7.79112 34.9614 7.48087 35.8492 8.00179 36.5411L13.6043 43.9812C14.1255 44.6733 15.2792 44.9126 16.1855 44.5115L17.7211 43.8318C18.6089 43.4387 18.9217 42.5731 18.4352 41.8864L19.5912 41.1002C19.9268 40.872 20.4003 40.7956 20.8271 40.901L26.1541 42.2138C26.8178 42.411 27.5527 42.4925 28.2869 42.435L38.9297 41.5976C39.6996 41.5371 40.4481 41.3248 41.0945 40.9839C48.9191 36.8544 48.4497 37.1105 48.5181 37.0614C49.3351 36.4752 49.4893 35.4843 48.8768 34.7568ZM45.2543 20.6213C42.9154 21.6652 39.0409 23.5155 35.4811 25.7712C36.8629 22.0081 41.9916 20.9244 45.2543 20.6213ZM29.0609 25.7726C25.5053 23.5193 21.6353 21.6705 19.2949 20.6255C23.6906 21.0436 27.8594 22.4871 29.0609 25.7726ZM17.6013 21.047C19.6559 21.9306 24.2838 24.0296 28.4165 26.6762C20.8306 26.8793 18.3695 23.0665 17.6013 21.047ZM34.6424 16.1436C35.2075 18.5052 34.6172 20.4948 32.8894 22.0753V12.339C33.5419 13.3135 34.2883 14.6635 34.6424 16.1436ZM29.8196 16.1436C30.1735 14.6645 30.919 13.3153 31.5712 12.3411V22.0741C29.8445 20.4937 29.2546 18.5046 29.8196 16.1436ZM41.6842 33.5719L43.9998 34.9877L41.1024 36.1555C40.1521 36.5386 39.1454 36.7798 38.1011 36.8753L38.1166 36.6782C38.1187 36.6522 38.1181 36.6262 38.1149 36.6002C37.9707 35.4287 36.8523 34.4941 35.3951 34.3275C35.3892 34.3268 35.3832 34.3262 35.3773 34.3257L30.087 33.8333C28.4111 33.6397 28.1831 33.0765 25.5881 32.2135C30.7967 30.274 37.1073 30.7734 41.6842 33.5719ZM47.648 36.3003L40.3473 40.1512C39.8825 40.3963 39.346 40.5487 38.7952 40.592L28.1524 41.4294C27.4247 41.4866 26.974 41.3544 26.5766 41.2562L21.2304 39.9386C20.3619 39.7247 19.3986 39.8799 18.7164 40.344L17.7642 40.9916L15.6312 38.1588C15.4492 37.917 15.0459 37.8344 14.7308 37.9739C14.4155 38.1134 14.3075 38.4225 14.4895 38.6643C14.8552 39.15 16.5269 41.37 17.2709 42.3581C17.4283 42.5672 17.3345 42.8356 17.0618 42.9564L15.5262 43.6361C15.2522 43.7573 14.9036 43.6853 14.7459 43.4758L9.14376 36.0358C8.98635 35.8267 9.08004 35.5582 9.35285 35.4375L10.8885 34.7577C11.163 34.6361 11.5115 34.7091 11.6688 34.918L12.9455 36.6136C13.1276 36.8553 13.5307 36.9381 13.8459 36.7986C14.1612 36.659 14.2692 36.3499 14.0872 36.1082L13.2323 34.9728L17.9 32.966C19.4402 32.3038 21.2587 32.1389 22.8889 32.5131C26.9812 33.4528 27.4732 34.5563 29.9011 34.8339C29.907 34.8346 29.9129 34.8353 29.9189 34.8358L35.2089 35.328C36.0461 35.4269 36.693 35.9705 36.7974 36.6587L36.7745 36.9477L30.0499 37.2845C29.6866 37.3027 29.4113 37.5432 29.4351 37.8218C29.4579 38.0892 29.7478 38.2943 30.0922 38.2943C30.1067 38.2943 30.1212 38.294 30.1359 38.2932C37.2529 37.8002 38.8286 38.214 41.7158 37.0501C46.7486 35.0201 46.4653 35.1404 46.532 35.1041C46.9391 34.883 47.4853 34.9675 47.7693 35.3049C48.0333 35.6186 47.9795 36.0404 47.648 36.3003Z" fill="white"/>
    </g>
    <defs>
        <clipPath id="clip0">
            <rect width="45" height="34.5038" fill="white" transform="translate(6 10.2021)"/>
        </clipPath>
    </defs>
</svg>
