<svg width="58" height="58" viewBox="0 0 58 58" fill="none" xmlns="http://www.w3.org/2000/svg">
    <rect width="58" height="58" rx="7" fill="#FF2400"/>
    <path d="M36.9062 17.8157H34.0312V16.1624C34.0312 15.1393 33.5012 14.1581 32.5576 13.4346C31.6141 12.7111 30.3344 12.3047 29 12.3047C27.6656 12.3047 26.3859 12.7111 25.4424 13.4346C24.4988 14.1581 23.9688 15.1393 23.9688 16.1624V17.8157H21.0938C20.9031 17.8157 20.7203 17.8738 20.5855 17.9771C20.4507 18.0805 20.375 18.2207 20.375 18.3668V30.4911C20.3767 30.9292 20.6044 31.3489 21.0084 31.6587C21.4124 31.9685 21.9599 32.1431 22.5312 32.1444H31.875V31.0422H22.5312C22.3406 31.0422 22.1578 30.9841 22.023 30.8808C21.8882 30.7774 21.8125 30.6373 21.8125 30.4911V29.94H31.875V28.8378H21.8125V18.9179H23.9688V20.5712H25.4062V18.9179H32.5938V20.5712H34.0312V18.9179H36.1875V20.5712H37.625V18.3668C37.625 18.2207 37.5493 18.0805 37.4145 17.9771C37.2797 17.8738 37.0969 17.8157 36.9062 17.8157ZM32.5938 17.8157H25.4062V16.1624C25.4062 15.4316 25.7849 14.7307 26.4588 14.214C27.1328 13.6972 28.0469 13.4069 29 13.4069C29.9531 13.4069 30.8672 13.6972 31.5412 14.214C32.2151 14.7307 32.5938 15.4316 32.5938 16.1624V17.8157Z" fill="white"/>
    <path d="M46.9688 21.6729H34.0312C33.8406 21.6729 33.6578 21.7309 33.523 21.8343C33.3882 21.9376 33.3125 22.0778 33.3125 22.224V30.4905C33.3142 30.9286 33.5419 31.3483 33.9459 31.6581C34.3499 31.9679 34.8974 32.1425 35.4688 32.1438H45.5312C46.1026 32.1425 46.6501 31.9679 47.0541 31.6581C47.4581 31.3483 47.6858 30.9286 47.6875 30.4905V22.224C47.6875 22.0778 47.6118 21.9376 47.477 21.8343C47.3422 21.7309 47.1594 21.6729 46.9688 21.6729ZM46.25 30.4905C46.25 30.6367 46.1743 30.7768 46.0395 30.8802C45.9047 30.9835 45.7219 31.0416 45.5312 31.0416H35.4688C35.2781 31.0416 35.0953 30.9835 34.9605 30.8802C34.8257 30.7768 34.75 30.6367 34.75 30.4905V29.9394H46.25V30.4905ZM46.25 28.8372H34.75V22.7751H46.25V28.8372Z" fill="white"/>
    <path d="M40.5 27.7357C41.4528 27.7348 42.3662 27.4442 43.0399 26.9276C43.7136 26.411 44.0926 25.7107 44.0938 24.9801V23.8779H42.6562V24.9801C42.6562 25.4186 42.4291 25.8391 42.0247 26.1492C41.6203 26.4593 41.0719 26.6334 40.5 26.6334C39.9281 26.6334 39.3797 26.4593 38.9753 26.1492C38.5709 25.8391 38.3438 25.4186 38.3438 24.9801V23.8779H36.9062V24.9801C36.9074 25.7107 37.2864 26.411 37.9601 26.9276C38.6338 27.4442 39.5472 27.7348 40.5 27.7357Z" fill="white"/>
    <path d="M50.8012 35.7539C50.4806 35.2408 49.9199 34.839 49.2306 34.6284C48.5413 34.4178 47.7738 34.414 47.0809 34.6175L40.6625 36.4086C40.5272 35.9973 40.2399 35.6247 39.8353 35.3354C39.4306 35.0462 38.9257 34.8526 38.3812 34.7779L29.7109 33.6057C27.8471 33.3542 25.9298 33.4829 24.1514 33.9788L23.0344 34.2935C21.9848 34.588 20.9932 34.9921 20.0875 35.4943L19.9287 35.1598C19.8966 35.0917 19.8473 35.0292 19.7836 34.9757C19.72 34.9222 19.6432 34.8789 19.5577 34.8482C19.4722 34.8175 19.3796 34.8 19.2853 34.7967C19.191 34.7935 19.0968 34.8045 19.008 34.8291L10.9026 37.0887C10.8139 37.1133 10.7323 37.1511 10.6625 37.1999C10.5928 37.2487 10.5363 37.3076 10.4963 37.3731C10.4562 37.4387 10.4334 37.5097 10.4291 37.582C10.4249 37.6543 10.4392 37.7266 10.4714 37.7946L7.09326 38.737L7.58489 39.7725L10.963 38.8302L13.8948 45.0069L15.2453 44.63L12.0713 37.9363L18.8276 36.0515L22.5155 43.822L20.7905 44.3043L21.2821 45.3392L23.6813 44.6669C23.7702 44.6423 23.8518 44.6044 23.9216 44.5556C23.9914 44.5067 24.0479 44.4478 24.088 44.3822C24.128 44.3166 24.1508 44.2455 24.155 44.1732C24.1593 44.1008 24.1448 44.0285 24.1125 43.9604L23.8667 43.4423L25.5199 42.9805C26.5592 42.6893 27.6669 42.5695 28.7708 42.6289L32.1805 42.8102C33.485 42.8821 34.7945 42.7407 36.0222 42.3952L49.161 38.7287C49.5326 38.6251 49.8724 38.4638 50.159 38.255C50.4457 38.0461 50.673 37.7941 50.8269 37.5148C50.9808 37.2355 51.0578 36.9349 51.0533 36.6317C51.0487 36.3285 50.9627 36.0293 50.8004 35.7528L50.8012 35.7539ZM49.4801 37.1223C49.4011 37.2537 49.2887 37.3719 49.1497 37.4698C49.0106 37.5677 48.8476 37.6434 48.6701 37.6927L35.5313 41.3597C34.4922 41.6516 33.3842 41.7712 32.2804 41.7108L28.8707 41.5295C27.5665 41.4596 26.2578 41.601 25.0297 41.9444L23.3722 42.4068L20.6014 36.5695C21.4858 36.0404 22.4729 35.6208 23.5268 35.3262L24.6423 35.0149C26.1839 34.5849 27.8459 34.4733 29.4615 34.6914L38.1282 35.8636C38.316 35.887 38.4959 35.9389 38.6574 36.0161C38.819 36.0933 38.9589 36.1943 39.0691 36.3133C39.1792 36.4323 39.2575 36.5669 39.2993 36.7093C39.3411 36.8516 39.3457 36.9989 39.3127 37.1427C39.2796 37.2864 39.2097 37.4237 39.1069 37.5465C39.0042 37.6693 38.8706 37.7753 38.7141 37.8583C38.5575 37.9412 38.3809 37.9995 38.1947 38.0297C38.0085 38.0599 37.8164 38.0615 37.6294 38.0344L29.8431 36.9818L29.593 38.0674L37.3792 39.12C38.0692 39.2137 38.78 39.11 39.3769 38.8286C39.9738 38.5473 40.4154 38.1078 40.6179 37.5935L47.5697 35.653C47.9216 35.5473 48.312 35.545 48.6659 35.6468C49.0198 35.7485 49.3121 35.9471 49.4866 36.2041C49.5712 36.3486 49.6144 36.5054 49.6132 36.6638C49.6121 36.8221 49.5667 36.9785 49.4801 37.1223Z" fill="white"/>
</svg>
