<svg width="51" height="58" viewBox="0 0 51 58" fill="none" xmlns="http://www.w3.org/2000/svg">
    <path d="M48.8017 23.3678H39.9332L45.8048 17.0991C46.8729 15.9506 47.4711 14.3969 47.4684 12.7785C47.4657 11.16 46.8623 9.60864 45.7904 8.46421C44.7185 7.31978 43.2654 6.67556 41.7495 6.67268C40.2336 6.6698 38.7784 7.30848 37.7026 8.44883L35.1724 11.1503L32.6422 8.44883C31.7291 7.46908 30.5302 6.85138 29.2437 6.69787C28.9132 6.05335 28.4578 5.49147 27.9079 5.0497L23.936 1.86955C23.3702 1.41542 22.7176 1.0998 22.0247 0.945058C21.3318 0.79032 20.6154 0.800262 19.9265 0.974178L6.8783 4.25173H0.87931C0.646103 4.25173 0.422447 4.35064 0.257544 4.5267C0.0926413 4.70275 0 4.94154 0 5.19052V17.3948C0 17.6438 0.0926413 17.8826 0.257544 18.0586C0.422447 18.2347 0.646103 18.3336 0.87931 18.3336H4.91315L6.46645 19.6596C8.30848 21.2292 10.5946 22.0855 12.9514 22.0887C12.9822 22.0887 13.0129 22.0869 13.0436 22.0835C13.0742 22.0869 13.105 22.0887 13.1358 22.0887C13.7949 22.0879 14.4516 22.0038 15.0923 21.8384C15.3799 22.1931 15.7355 22.4776 16.1351 22.6727C16.5346 22.8679 16.9688 22.9691 17.4081 22.9696C17.8032 22.9692 18.1945 22.8882 18.5611 22.731L19.5409 22.3125C20.2262 22.6221 20.9984 22.6298 21.689 22.334C21.717 22.3223 26.778 19.4872 26.778 19.4872L30.4116 23.3678H21.5431C20.9603 23.3686 20.4015 23.6161 19.9894 24.0561C19.5773 24.496 19.3455 25.0926 19.3448 25.7148V54.8173C19.3455 55.4396 19.5773 56.0361 19.9894 56.4761C20.4015 56.9161 20.9603 57.1636 21.5431 57.1643H48.8017C49.3845 57.1636 49.9433 56.9161 50.3554 56.4761C50.7675 56.0361 50.9993 55.4396 51 54.8173V25.7148C50.9993 25.0926 50.7675 24.496 50.3554 24.0561C49.9433 23.6161 49.3845 23.3686 48.8017 23.3678ZM34.5506 13.1417C34.6323 13.2289 34.7292 13.2981 34.8359 13.3452C34.9426 13.3924 35.0569 13.4167 35.1724 13.4167C35.2879 13.4167 35.4022 13.3924 35.5089 13.3452C35.6156 13.2981 35.7125 13.2289 35.7942 13.1417L38.9461 9.77663C39.6919 8.98773 40.7 8.5463 41.7498 8.54889C42.7997 8.55148 43.8058 8.99789 44.5482 9.79046C45.2906 10.583 45.7087 11.6572 45.7112 12.7781C45.7136 13.899 45.3002 14.9753 44.5613 15.7715L37.1888 23.6426L35.1724 25.7954L33.2229 23.714C33.1851 23.6645 33.1427 23.6192 33.0964 23.5788L27.8095 17.9344L29.0508 17.8692C29.9851 17.82 30.8649 17.385 31.5044 16.6562C32.1439 15.9273 32.4932 14.9616 32.4783 13.9631C32.4635 12.9645 32.0857 12.0111 31.4248 11.3043C30.7639 10.5975 29.8716 10.1926 28.9363 10.175C28.9237 10.175 28.9111 10.175 28.8984 10.175L25.3804 10.2717C25.7191 9.77781 26.1538 9.36794 26.6547 9.07021C27.1557 8.77249 27.711 8.59396 28.2826 8.54686C28.8542 8.49977 29.4286 8.58523 29.9664 8.79737C30.5042 9.00951 30.9927 9.34333 31.3983 9.77593L34.5506 13.1417ZM5.77102 16.6622C5.615 16.529 5.42119 16.4565 5.22146 16.4566H1.75862V6.1299H6.9803C7.04813 6.12986 7.11573 6.12148 7.18177 6.1049L20.3293 2.80177C20.7677 2.69105 21.2236 2.68471 21.6646 2.78319C22.1055 2.88167 22.5208 3.08256 22.8809 3.37161L26.8527 6.55177C26.9649 6.64169 27.0711 6.73971 27.1707 6.84514C26.3383 7.06899 25.5642 7.49117 24.9065 8.08C24.7728 8.02 24.6273 7.99624 24.4829 8.01083C24.3385 8.02542 24.1998 8.0779 24.079 8.16361C23.9582 8.24931 23.8592 8.36558 23.7907 8.50206C23.7222 8.63853 23.6864 8.79097 23.6864 8.9458V9.60295C23.5552 9.83639 23.4386 10.0789 23.3374 10.3288L22.86 10.3421L20.8796 7.45277C20.8118 7.352 20.7261 7.26656 20.6272 7.20139C20.5284 7.13621 20.4185 7.09258 20.3038 7.07303C20.189 7.05348 20.0718 7.05839 19.9589 7.08748C19.846 7.11657 19.7396 7.16926 19.6458 7.24251C19.5521 7.31575 19.4729 7.40811 19.4127 7.51423C19.3526 7.62035 19.3128 7.73814 19.2956 7.86079C19.2783 7.98344 19.284 8.10853 19.3123 8.22881C19.3406 8.3491 19.391 8.46221 19.4605 8.5616L21.7128 11.8474C21.7966 11.97 21.907 12.069 22.0345 12.1359C22.1621 12.2028 22.303 12.2356 22.4451 12.2314L28.9234 12.0532C29.4011 12.0667 29.8553 12.2772 30.1906 12.6407C30.526 13.0042 30.7163 13.4923 30.7217 14.0024C30.7271 14.5126 30.5471 15.0051 30.2195 15.3766C29.892 15.748 29.4423 15.9695 28.965 15.9945L20.1269 16.4574C19.9474 16.4667 19.775 16.5347 19.633 16.6522C19.6288 16.6556 19.625 16.6583 19.6207 16.662L17.2839 18.6578C16.1055 19.6617 14.6431 20.2094 13.1355 20.2115C13.1047 20.2115 13.0739 20.2132 13.0433 20.2167C13.0126 20.2132 12.9818 20.2115 12.951 20.2115C10.9938 20.2089 9.09515 19.4978 7.56526 18.1944L5.77102 16.6622ZM17.0685 21.0416C17.3736 20.8694 17.6684 20.6771 17.9512 20.466C17.9965 20.6144 18.0525 20.7587 18.1189 20.8978L17.9073 20.9881C17.6405 21.1027 17.3461 21.1215 17.0685 21.0416ZM20.9991 20.6057C20.797 20.6831 20.5776 20.6936 20.3698 20.6358C20.1619 20.578 19.9752 20.4547 19.8341 20.2818C19.6929 20.109 19.6038 19.8947 19.5785 19.667C19.5532 19.4393 19.5928 19.2087 19.6922 19.0054L20.4972 18.3179L25.4391 18.059L25.4747 18.097L20.9991 20.6057ZM21.1035 25.7148C21.1035 25.5903 21.1498 25.4709 21.2322 25.3829C21.3147 25.2949 21.4265 25.2454 21.5431 25.2454H32.1702L33.9289 27.123H27.2586C27.0254 27.123 26.8018 27.2219 26.6369 27.398C26.472 27.574 26.3793 27.8128 26.3793 28.0618C26.3793 28.3108 26.472 28.5496 26.6369 28.7256C26.8018 28.9017 27.0254 29.0006 27.2586 29.0006H43.0862C43.3194 29.0006 43.5431 28.9017 43.708 28.7256C43.8729 28.5496 43.9655 28.3108 43.9655 28.0618C43.9655 27.8128 43.8729 27.574 43.708 27.398C43.5431 27.2219 43.3194 27.123 43.0862 27.123H36.416L38.1746 25.2454H48.8017C48.9183 25.2454 49.0302 25.2949 49.1126 25.3829C49.1951 25.4709 49.2414 25.5903 49.2414 25.7148V30.8782H21.1035V25.7148ZM49.2414 54.8173C49.2414 54.9418 49.1951 55.0612 49.1126 55.1492C49.0302 55.2373 48.9183 55.2867 48.8017 55.2867H21.5431C21.4265 55.2867 21.3147 55.2373 21.2322 55.1492C21.1498 55.0612 21.1035 54.9418 21.1035 54.8173V32.7558H49.2414V54.8173Z" fill="#056676"/>
    <path d="M36.9311 21.4903C37.0466 21.4905 37.161 21.4662 37.2677 21.4191C37.3744 21.3719 37.4713 21.3026 37.5529 21.2153L38.4322 20.2765C38.5971 20.1005 38.6897 19.8617 38.6897 19.6127C38.6897 19.3637 38.5971 19.1249 38.4322 18.9488C38.2673 18.7727 38.0436 18.6738 37.8104 18.6738C37.5772 18.6738 37.3535 18.7727 37.1886 18.9488L36.3093 19.8876C36.1863 20.0189 36.1026 20.1862 36.0687 20.3683C36.0347 20.5504 36.0521 20.7392 36.1187 20.9108C36.1853 21.0823 36.298 21.2289 36.4426 21.3321C36.5872 21.4352 36.7572 21.4903 36.9311 21.4903Z" fill="#056676"/>
    <path d="M40.4483 17.7351C40.5638 17.7353 40.6782 17.7111 40.7849 17.6639C40.8916 17.6167 40.9885 17.5475 41.0701 17.4602L42.8288 15.5826C42.9937 15.4066 43.0863 15.1678 43.0863 14.9188C43.0863 14.6698 42.9937 14.431 42.8288 14.255C42.6639 14.0789 42.4402 13.98 42.207 13.98C41.9738 13.98 41.7501 14.0789 41.5852 14.255L39.8265 16.1325C39.7035 16.2638 39.6198 16.4311 39.5859 16.6132C39.5519 16.7953 39.5694 16.9841 39.6359 17.1556C39.7025 17.3272 39.8152 17.4738 39.9598 17.5769C40.1044 17.6801 40.2744 17.7352 40.4483 17.7351Z" fill="#056676"/>
    <path d="M31.6673 44.4725C31.6341 45.1148 31.7561 45.7554 32.0216 46.3329C32.2872 46.9103 32.6873 47.4052 33.1837 47.7699C33.68 48.1346 34.2559 48.3569 34.8559 48.4155C35.4559 48.474 36.06 48.3669 36.61 48.1043C37.1601 47.8418 37.6377 47.4326 37.9969 46.9161C38.3561 46.3997 38.5849 45.7933 38.6613 45.1552C38.7377 44.5171 38.6591 43.8687 38.4331 43.2724C38.2071 42.6761 37.8413 42.1518 37.3708 41.75L36.5834 41.0775L38.3546 39.5646C38.5367 39.409 38.6535 39.1825 38.6792 38.935C38.7049 38.6875 38.6374 38.4392 38.4917 38.2448C38.4195 38.1485 38.3303 38.0684 38.2291 38.0089C38.1279 37.9495 38.0168 37.9119 37.902 37.8983C37.6701 37.8709 37.4376 37.9429 37.2555 38.0985L35.1753 39.8752L33.095 38.0985C32.9129 37.9429 32.6804 37.8709 32.4485 37.8983C32.2167 37.9257 32.0046 38.0504 31.8588 38.2448C31.7131 38.4392 31.6456 38.6875 31.6713 38.935C31.697 39.1825 31.8138 39.409 31.9959 39.5646L33.7671 41.0775L32.9796 41.75C32.5941 42.08 32.2779 42.4929 32.0518 42.962C31.8257 43.4311 31.6947 43.9457 31.6673 44.4725ZM33.4232 44.5762C33.4356 44.3128 33.5005 44.0552 33.6136 43.8207C33.7268 43.5862 33.8855 43.3803 34.0793 43.2166L35.1758 42.2801L36.2722 43.2166C36.465 43.3812 36.623 43.5874 36.7361 43.8217C36.8491 44.056 36.9146 44.313 36.9283 44.5762C36.9419 44.8393 36.9035 45.1026 36.8153 45.3487C36.7272 45.5949 36.5915 45.8185 36.417 46.0048C36.0875 46.3558 35.6412 46.5529 35.1758 46.5529C34.7104 46.5529 34.2641 46.3558 33.9347 46.0048C33.759 45.8193 33.6225 45.5959 33.5343 45.3495C33.4461 45.1031 33.4082 44.8395 33.4232 44.5762Z" fill="#056676"/>
</svg>
