<svg width="58" height="58" viewBox="0 0 58 58" fill="none" xmlns="http://www.w3.org/2000/svg">
    <rect width="58" height="58" rx="7" fill="#967117"/>
    <path d="M45.7827 39.8935C45.7647 39.8066 45.7292 39.7243 45.6784 39.6516C45.6277 39.5788 45.5627 39.5171 45.4874 39.4702L39.3009 35.6087C39.258 35.1818 39.1555 34.7629 38.9961 34.3645L38.5001 33.1236V27.3438C38.5004 26.2787 38.3385 25.2199 38.02 24.2036L39.4762 19.9419L42.4786 19.2729L41.9814 20.7277C41.3449 20.679 40.7125 20.864 40.2027 21.2482C39.6929 21.6323 39.3407 22.1892 39.2121 22.8145C39.0835 23.4397 39.1873 24.0904 39.5041 24.6446C39.8209 25.1988 40.3289 25.6184 40.933 25.8248C41.537 26.0313 42.1956 26.0103 42.7853 25.7659C43.375 25.5216 43.8554 25.0705 44.1363 24.4973C44.4173 23.9241 44.4796 23.2681 44.3115 22.6523C44.1434 22.0365 43.7565 21.5031 43.2234 21.1521L44.099 18.59C44.1009 18.5844 44.102 18.5795 44.1034 18.5744C44.1046 18.5707 44.1063 18.5672 44.1074 18.5635C44.1406 18.4512 44.143 18.332 44.1146 18.2184C44.0861 18.1047 44.0278 18.0008 43.9455 17.9173L34.6786 8.50823C34.6072 8.43565 34.5197 8.38071 34.4233 8.34776C34.3269 8.31482 34.2242 8.30477 34.1232 8.31841L21.0356 10.0871C20.9195 10.1028 20.8098 10.1492 20.7177 10.2217C20.6256 10.2941 20.5546 10.3899 20.5121 10.499C20.4695 10.6082 20.457 10.7267 20.4757 10.8423C20.4944 10.958 20.5437 11.0665 20.6186 11.1566L23.3309 14.4238L21.8153 18.8584C20.4806 19.8349 19.3945 21.1119 18.6449 22.586C17.8952 24.0601 17.503 25.69 17.5001 27.3438V33.7513L17.2786 34.1943C17.1082 34.5344 16.9808 34.8946 16.8995 35.2663L14.2417 33.4348C13.6305 33.0142 12.883 32.8398 12.1487 32.9465C11.4144 33.0532 10.7475 33.433 10.2811 34.0102C9.81482 34.5873 9.58348 35.3191 9.63338 36.0594C9.68328 36.7997 10.0107 37.4939 10.5503 38.0032L17.2618 44.3311C17.321 44.3872 17.3902 44.4317 17.4658 44.4624L24.735 47.4052C24.8507 47.4519 24.9773 47.4648 25.1 47.4423L31.0154 46.3534C31.0392 46.3489 31.0628 46.3433 31.086 46.3363L35.9989 44.8556L39.9418 47.5724C40.0127 47.6213 40.0926 47.6558 40.1769 47.6738C40.2612 47.6918 40.3482 47.693 40.433 47.6774C40.5177 47.6618 40.5986 47.6297 40.6709 47.5828C40.7432 47.536 40.8056 47.4753 40.8545 47.4043L45.6808 40.3999C45.7312 40.3268 45.7662 40.2442 45.7837 40.1572C45.8012 40.0701 45.8009 39.9804 45.7827 39.8935ZM43.0228 23.7702C42.9246 24.0576 42.7298 24.302 42.4716 24.4618C42.2134 24.6216 41.9078 24.6869 41.6068 24.6467C41.3059 24.6064 41.0281 24.4631 40.821 24.241C40.6139 24.019 40.4902 23.732 40.4709 23.4289C40.4517 23.1259 40.5381 22.8256 40.7155 22.5791C40.8929 22.3326 41.1502 22.1553 41.4437 22.0773C41.7371 21.9993 42.0486 22.0255 42.3249 22.1514C42.6012 22.2772 42.8254 22.495 42.9591 22.7676C43.0355 22.9223 43.0804 23.0905 43.0914 23.2626C43.1023 23.4347 43.079 23.6072 43.0228 23.7702ZM33.9738 9.66307L42.1802 17.9947L30.2149 20.6606L22.3845 11.2292L33.9738 9.66307ZM24.3135 15.6072L29.4615 21.8076C29.5386 21.9006 29.6398 21.9704 29.7541 22.0095C29.8684 22.0486 29.9912 22.0554 30.1091 22.0291L37.9751 20.2764L36.7282 23.9252C34.2603 24.0351 31.7938 23.6801 29.4571 22.8788C27.1188 22.0823 24.9511 20.8533 23.0669 19.256L24.3135 15.6072ZM18.1138 36.0268C18.1426 35.5931 18.2578 35.1695 18.4527 34.781L18.7433 34.1998C18.7889 34.1086 18.8126 34.0082 18.8126 33.9063V27.3438C18.815 25.9824 19.1189 24.6384 19.7022 23.4084C20.2856 22.1783 21.134 21.0927 22.1866 20.2294C24.203 21.9463 26.5257 23.2666 29.0325 24.1208C31.2268 24.8734 33.5307 25.2573 35.8505 25.257C36.2134 25.257 36.577 25.2476 36.9415 25.2287C37.105 25.9218 37.1876 26.6316 37.1876 27.3438V33.25C37.1876 33.3335 37.2035 33.4162 37.2345 33.4937L37.6918 34.6369C36.0022 33.7592 34.0677 33.4714 32.1957 33.8192L30.9527 34.0489C29.0648 34.399 27.349 35.3724 26.08 36.8134L20.7562 37.2405C20.4977 37.2612 20.2429 37.3149 19.998 37.4003L18.1051 36.096C18.1092 36.0731 18.1121 36.05 18.1138 36.0268ZM40.1458 46.1185L36.4835 43.5951C36.4025 43.5392 36.3099 43.5023 36.2127 43.4871C36.1155 43.4719 36.0161 43.4787 35.9218 43.5071L30.7417 45.0683L25.0501 46.1161L18.0722 43.2913L11.4504 37.0481C11.1507 36.7658 10.9688 36.3808 10.9409 35.9702C10.913 35.5595 11.0413 35.1534 11.3 34.8333C11.5587 34.5131 11.9287 34.3025 12.3361 34.2435C12.7435 34.1846 13.1581 34.2817 13.497 34.5153L18.8059 38.1734C18.6986 38.2871 18.6002 38.4088 18.5115 38.5375C18.2143 38.9688 18.0344 39.47 17.9896 39.9919C17.9447 40.5137 18.0363 41.0383 18.2555 41.514C18.4747 41.9897 18.8138 42.4002 19.2396 42.7052C19.6655 43.0102 20.1633 43.1992 20.6843 43.2536L27.3259 43.9466C27.499 43.9647 27.6722 43.9133 27.8074 43.8036C27.9425 43.694 28.0286 43.5352 28.0467 43.362C28.0648 43.1889 28.0133 43.0157 27.9037 42.8805C27.7941 42.7454 27.6352 42.6593 27.4621 42.6412L20.8205 41.9481C20.3973 41.904 20.0057 41.7034 19.7227 41.3855C19.4397 41.0677 19.2857 40.6556 19.2908 40.23C19.296 39.8045 19.4599 39.3962 19.7505 39.0853C20.0411 38.7744 20.4373 38.5833 20.8616 38.5494L26.4561 38.1004C26.5439 38.0934 26.6293 38.0687 26.7074 38.028C26.7855 37.9872 26.8545 37.9311 26.9105 37.8631C27.9962 36.5448 29.5119 35.6513 31.1911 35.3397L32.4341 35.11C34.215 34.779 36.0552 35.1281 37.5912 36.0883L44.2101 40.2197L40.1458 46.1185Z" fill="white"/>
    <path d="M28.4641 31.8578C28.3723 31.9496 28.2554 32.0121 28.1281 32.0375C28.0008 32.0628 27.8688 32.0498 27.7489 32.0001C27.629 31.9505 27.5265 31.8664 27.4544 31.7585C27.3823 31.6505 27.3438 31.5237 27.3438 31.3939C27.3438 31.2198 27.2746 31.0529 27.1515 30.9298C27.0285 30.8068 26.8616 30.7376 26.6875 30.7376C26.5135 30.7376 26.3465 30.8068 26.2235 30.9298C26.1004 31.0529 26.0313 31.2198 26.0313 31.3939C26.0304 31.8009 26.1563 32.1981 26.3915 32.5304C26.6267 32.8626 26.9595 33.1133 27.3438 33.2478V33.2503V33.9066C27.3438 34.0806 27.4129 34.2475 27.536 34.3706C27.659 34.4937 27.826 34.5628 28 34.5628C28.1741 34.5628 28.341 34.4937 28.464 34.3706C28.5871 34.2475 28.6563 34.0806 28.6563 33.9066V33.2503V33.2478C29.0405 33.1133 29.3733 32.8626 29.6085 32.5304C29.8437 32.1981 29.9696 31.8009 29.9688 31.3939V31.2812C29.968 30.9757 29.8965 30.6746 29.7599 30.4013C29.6233 30.128 29.4252 29.8901 29.1813 29.7062L27.6063 28.525C27.5249 28.4637 27.4589 28.3844 27.4133 28.2933C27.3678 28.2022 27.344 28.1018 27.3438 28V27.8874C27.3438 27.7133 27.4129 27.5464 27.536 27.4233C27.659 27.3003 27.826 27.2311 28 27.2311C28.1741 27.2311 28.341 27.3003 28.464 27.4233C28.5871 27.5464 28.6563 27.7133 28.6563 27.8874C28.6563 28.0614 28.7254 28.2283 28.8485 28.3514C28.9715 28.4745 29.1385 28.5436 29.3125 28.5436C29.4866 28.5436 29.6535 28.4745 29.7765 28.3514C29.8996 28.2283 29.9688 28.0614 29.9688 27.8874C29.9696 27.4803 29.8437 27.0831 29.6085 26.7509C29.3733 26.4187 29.0405 26.1679 28.6563 26.0335V25.375C28.6563 25.201 28.5871 25.034 28.464 24.911C28.341 24.7879 28.1741 24.7188 28 24.7188C27.826 24.7188 27.659 24.7879 27.536 24.911C27.4129 25.034 27.3438 25.201 27.3438 25.375V26.0312V26.0338C26.9595 26.1682 26.6267 26.419 26.3915 26.7512C26.1563 27.0834 26.0304 27.4806 26.0313 27.8877V28C26.032 28.3055 26.1035 28.6067 26.2401 28.88C26.3767 29.1532 26.5748 29.3911 26.8188 29.575L28.3938 30.7563C28.4751 30.8175 28.5411 30.8968 28.5867 30.9879C28.6322 31.079 28.656 31.1794 28.6563 31.2812V31.3939C28.6565 31.4801 28.6396 31.5655 28.6066 31.6451C28.5737 31.7248 28.5252 31.7971 28.4641 31.8578Z" fill="white"/>
    <path d="M20.7812 28.6562C20.9553 28.6562 21.1222 28.5871 21.2453 28.464C21.3684 28.341 21.4375 28.174 21.4375 28V27.3438C21.4375 27.1697 21.3684 27.0028 21.2453 26.8797C21.1222 26.7566 20.9553 26.6875 20.7812 26.6875C20.6072 26.6875 20.4403 26.7566 20.3172 26.8797C20.1941 27.0028 20.125 27.1697 20.125 27.3438V28C20.125 28.174 20.1941 28.341 20.3172 28.464C20.4403 28.5871 20.6072 28.6562 20.7812 28.6562Z" fill="white"/>
    <path d="M20.7812 31.9375C20.9553 31.9375 21.1222 31.8684 21.2453 31.7453C21.3684 31.6222 21.4375 31.4553 21.4375 31.2812V29.9688C21.4375 29.7947 21.3684 29.6278 21.2453 29.5047C21.1222 29.3816 20.9553 29.3125 20.7812 29.3125C20.6072 29.3125 20.4403 29.3816 20.3172 29.5047C20.1941 29.6278 20.125 29.7947 20.125 29.9688V31.2812C20.125 31.4553 20.1941 31.6222 20.3172 31.7453C20.4403 31.8684 20.6072 31.9375 20.7812 31.9375Z" fill="white"/>
</svg>
