<svg width="58" height="58" viewBox="0 0 58 58" fill="none" xmlns="http://www.w3.org/2000/svg">
    <rect width="58" height="58" rx="7" fill="#4285F4"/>
    <path d="M33.3125 18.5999H31.1562V16.9466C31.1562 16.8004 31.0805 16.6603 30.9457 16.5569C30.8109 16.4536 30.6281 16.3955 30.4375 16.3955H27.5625C27.3719 16.3955 27.1891 16.4536 27.0543 16.5569C26.9195 16.6603 26.8438 16.8004 26.8438 16.9466V18.5999H24.6875C24.4969 18.5999 24.3141 18.658 24.1793 18.7613C24.0445 18.8647 23.9688 19.0049 23.9688 19.151V21.3554C23.9688 21.5016 24.0445 21.6418 24.1793 21.7451C24.3141 21.8485 24.4969 21.9065 24.6875 21.9065H26.8438V23.5599C26.8438 23.706 26.9195 23.8462 27.0543 23.9495C27.1891 24.0529 27.3719 24.111 27.5625 24.111H30.4375C30.6281 24.111 30.8109 24.0529 30.9457 23.9495C31.0805 23.8462 31.1562 23.706 31.1562 23.5599V21.9065H33.3125C33.5031 21.9065 33.6859 21.8485 33.8207 21.7451C33.9555 21.6418 34.0312 21.5016 34.0312 21.3554V19.151C34.0312 19.0049 33.9555 18.8647 33.8207 18.7613C33.6859 18.658 33.5031 18.5999 33.3125 18.5999ZM32.5938 20.8043H30.4375C30.2469 20.8043 30.0641 20.8624 29.9293 20.9657C29.7945 21.0691 29.7188 21.2093 29.7188 21.3554V23.0087H28.2812V21.3554C28.2812 21.2093 28.2055 21.0691 28.0707 20.9657C27.9359 20.8624 27.7531 20.8043 27.5625 20.8043H25.4062V19.7021H27.5625C27.7531 19.7021 27.9359 19.6441 28.0707 19.5407C28.2055 19.4374 28.2812 19.2972 28.2812 19.151V17.4977H29.7188V19.151C29.7188 19.2972 29.7945 19.4374 29.9293 19.5407C30.0641 19.6441 30.2469 19.7021 30.4375 19.7021H32.5938V20.8043Z" fill="white"/>
    <path d="M48.9309 21.5539C48.9455 21.4569 48.9527 21.3594 48.9525 21.2618C48.949 20.7566 48.7205 20.2675 48.3048 19.8756C47.8891 19.4837 47.3112 19.2125 46.6669 19.107C45.9381 19.0006 45.1838 19.1105 44.5567 19.4143C43.9295 19.7182 43.4763 20.1934 43.2887 20.7437L40.1262 27.7207C40.0794 27.735 40.0338 27.7515 39.9897 27.7703L33.6359 30.625C32.6637 31.0629 31.8572 31.6877 31.2963 32.4378C30.7354 33.1878 30.4394 34.037 30.4375 34.9016V40.093C30.2469 40.093 30.0641 40.151 29.9293 40.2544C29.7945 40.3578 29.7188 40.4979 29.7188 40.6441V45.0529C29.7188 45.1991 29.7945 45.3393 29.9293 45.4426C30.0641 45.546 30.2469 45.604 30.4375 45.604H40.5C40.6906 45.604 40.8734 45.546 41.0082 45.4426C41.143 45.3393 41.2187 45.1991 41.2187 45.0529V40.6441C41.2187 40.4979 41.143 40.3578 41.0082 40.2544C40.8734 40.151 40.6906 40.093 40.5 40.093V38.8806C40.5013 38.6478 40.566 38.4178 40.6897 38.2052C40.8135 37.9927 40.9936 37.8023 41.2187 37.6461L46.0775 34.334C46.609 33.9774 46.9894 33.5072 47.17 32.9838L50.2894 24.0393C50.356 23.8526 50.3898 23.6598 50.39 23.4662C50.3872 23.0773 50.2508 22.6958 49.9947 22.3601C49.7386 22.0244 49.3717 21.7463 48.9309 21.5539ZM44.6616 21.0689C44.7498 20.7839 44.9749 20.5349 45.2919 20.3714C45.609 20.208 45.9947 20.1422 46.3722 20.1871C46.6943 20.2389 46.9836 20.3738 47.1916 20.5694C47.3996 20.765 47.5138 21.0094 47.515 21.2618V21.2728C46.873 21.2819 46.2524 21.4516 45.7477 21.756C45.243 22.0604 44.8818 22.4829 44.7191 22.9592L42.7137 27.7042C42.4101 27.5938 42.0846 27.523 41.7506 27.4948L44.6616 21.0689ZM39.7812 44.5018H31.1562V41.1952H39.7812V44.5018ZM48.9022 23.7528L45.7756 32.7027C45.6675 33.0137 45.4425 33.2935 45.1287 33.5073L40.2628 36.8194C39.8863 37.0798 39.585 37.3977 39.3783 37.7526C39.1715 38.1076 39.064 38.4918 39.0625 38.8806V40.093H31.875V34.9016C31.8786 34.2292 32.1096 33.569 32.5455 32.9856C32.9814 32.4022 33.6072 31.9154 34.3619 31.5729L40.7084 28.7237C40.8721 28.6506 41.0529 28.603 41.2406 28.5837C41.4283 28.5643 41.6192 28.5736 41.8022 28.611C41.9852 28.6484 42.1567 28.7131 42.307 28.8015C42.4573 28.8899 42.5833 29.0002 42.6778 29.126C42.8645 29.3807 42.916 29.6807 42.8216 29.9637C42.7716 30.1034 42.6863 30.2343 42.5703 30.3487C42.4544 30.4631 42.3102 30.5589 42.1459 30.6305L38.0275 32.4547C37.8711 32.5309 37.7591 32.6506 37.715 32.7887C37.6709 32.9267 37.698 33.0725 37.7908 33.1956C37.8836 33.3186 38.0348 33.4095 38.2128 33.4491C38.3909 33.4887 38.582 33.474 38.7463 33.4081L42.8647 31.5839C43.1939 31.4407 43.4824 31.2485 43.7132 31.0185C43.944 30.7885 44.1125 30.5254 44.2087 30.2448C44.4044 29.6809 44.301 29.0806 43.9212 28.5749L43.8781 28.5253L46.0991 23.2733C46.1873 22.9883 46.4124 22.7393 46.7294 22.5758C47.0465 22.4124 47.4322 22.3466 47.8097 22.3915C48.1318 22.4433 48.4211 22.5782 48.6291 22.7738C48.8371 22.9694 48.9513 23.2138 48.9525 23.4662C48.9549 23.5631 48.9379 23.6598 48.9022 23.7528Z" fill="white"/>
    <path d="M27.5626 40.0931V34.9017C27.5607 34.0371 27.2647 33.1878 26.7038 32.4378C26.1429 31.6878 25.3364 31.063 24.3642 30.6251L18.0104 27.7649C17.9673 27.7483 17.917 27.7373 17.8739 27.7208L14.7329 20.7824C14.5504 20.224 14.0972 19.7399 13.4656 19.4287C12.834 19.1174 12.0715 19.0024 11.3332 19.107C10.6889 19.2126 10.111 19.4838 9.69533 19.8757C9.27963 20.2676 9.05109 20.7567 9.04761 21.2618C9.04742 21.3594 9.05462 21.457 9.06917 21.5539C8.62841 21.7464 8.26151 22.0245 8.00538 22.3602C7.74926 22.6958 7.61293 23.0773 7.61011 23.4663C7.6115 23.6595 7.64287 23.8519 7.70354 24.0394L10.8301 32.9783C11.0088 33.504 11.3894 33.9763 11.9226 34.334L16.7742 37.6462C17.0015 37.8012 17.1837 37.9913 17.3088 38.204C17.4339 38.4168 17.4991 38.6473 17.5001 38.8806V40.0931C17.3095 40.0931 17.1267 40.1511 16.9919 40.2545C16.8571 40.3578 16.7814 40.498 16.7814 40.6442V45.053C16.7814 45.1991 16.8571 45.3393 16.9919 45.4427C17.1267 45.546 17.3095 45.6041 17.5001 45.6041H27.5626C27.7532 45.6041 27.936 45.546 28.0708 45.4427C28.2056 45.3393 28.2814 45.1991 28.2814 45.053V40.6442C28.2814 40.498 28.2056 40.3578 28.0708 40.2545C27.936 40.1511 27.7532 40.0931 27.5626 40.0931ZM10.4851 21.2618C10.486 21.0102 10.5991 20.7664 10.8057 20.5709C11.0123 20.3754 11.2999 20.24 11.6207 20.1872C12.0086 20.144 12.4034 20.2149 12.726 20.3856C13.0486 20.5563 13.2751 20.8142 13.3601 21.1075L16.2495 27.4948C15.9155 27.523 15.59 27.5938 15.2864 27.7042L13.2954 22.9868C13.1334 22.5058 12.7715 22.0784 12.2644 21.7691C11.7574 21.4599 11.1328 21.2857 10.4851 21.2729V21.2618ZM17.7301 36.8195L12.8714 33.5074C12.5559 33.2924 12.3307 33.0104 12.2245 32.6972L9.09073 23.7528C9.06098 23.659 9.04649 23.5628 9.04761 23.4663C9.04849 23.2146 9.16163 22.9708 9.36821 22.7753C9.5748 22.5799 9.8624 22.4444 10.1832 22.3916C10.5684 22.3473 10.9611 22.4164 11.2825 22.5851C11.6039 22.7538 11.83 23.0096 11.9154 23.3009L14.122 28.5254L14.0789 28.575C13.6991 29.0806 13.5957 29.6809 13.7914 30.2448C13.8876 30.5255 14.0561 30.7886 14.2869 31.0186C14.5177 31.2485 14.8062 31.4408 15.1354 31.584L19.2539 33.4082C19.4181 33.474 19.6092 33.4887 19.7873 33.4491C19.9653 33.4095 20.1165 33.3187 20.2093 33.1956C20.3021 33.0726 20.3292 32.9268 20.2851 32.7887C20.241 32.6507 20.1291 32.531 19.9726 32.4548L15.8542 30.6306C15.6899 30.559 15.5457 30.4632 15.4298 30.3488C15.3138 30.2343 15.2285 30.1035 15.1785 29.9638C15.0841 29.6808 15.1356 29.3807 15.3223 29.1261C15.4162 29.0005 15.5415 28.8904 15.6909 28.8019C15.8403 28.7135 16.011 28.6484 16.1932 28.6106C16.3754 28.5727 16.5656 28.5627 16.7528 28.5812C16.9401 28.5997 17.1207 28.6463 17.2845 28.7183L23.6382 31.573C24.3929 31.9155 25.0187 32.4022 25.4546 32.9857C25.8905 33.5691 26.1215 34.2293 26.1251 34.9017V40.0931H18.9376V38.8806C18.9364 38.4913 18.8282 38.1066 18.6202 37.7514C18.4121 37.3963 18.1089 37.0788 17.7301 36.8195ZM26.8439 44.5019H18.2189V41.1953H26.8439V44.5019Z" fill="white"/>
    <path d="M39.1683 14.264C38.501 13.7515 37.7085 13.345 36.8361 13.0676C35.9637 12.7902 35.0285 12.6474 34.0841 12.6475C33.1396 12.6475 32.2044 12.7904 31.3321 13.0679C30.4597 13.3453 29.6673 13.752 29.0001 14.2646C28.333 13.752 27.5407 13.3453 26.6683 13.0679C25.796 12.7904 24.8608 12.6476 23.9164 12.6476C22.972 12.6476 22.0368 12.7904 21.1645 13.0679C20.2922 13.3453 19.4998 13.752 18.8327 14.2646C17.4874 15.2983 16.7319 16.699 16.7319 18.1592C16.7319 19.6195 17.4874 21.0202 18.8327 22.0539L28.4927 29.4607C28.6275 29.5641 28.8103 29.6221 29.0009 29.6221C29.1914 29.6221 29.3742 29.5641 29.509 29.4607L39.169 22.0539C40.5142 21.02 41.2696 19.6192 41.2695 18.1589C41.2693 16.6985 40.5137 15.2978 39.1683 14.264ZM29.0001 28.2918L19.8483 21.2746C19.0448 20.6577 18.4979 19.872 18.2768 19.0168C18.0556 18.1617 18.17 17.2754 18.6057 16.4701C19.0413 15.6648 19.7786 14.9766 20.7242 14.4925C21.6699 14.0084 22.7815 13.7502 23.9186 13.7504C24.6739 13.7484 25.4222 13.8618 26.1198 14.0838C26.8174 14.3059 27.4503 14.6323 27.9817 15.0439L28.492 15.4351C28.6268 15.5385 28.8095 15.5965 29.0001 15.5965C29.1907 15.5965 29.3735 15.5385 29.5083 15.4351L30.02 15.0428C30.5536 14.6329 31.1874 14.3077 31.8851 14.0858C32.5828 13.864 33.3307 13.7498 34.086 13.7498C34.8413 13.7498 35.5892 13.864 36.2869 14.0858C36.9846 14.3077 37.6184 14.6329 38.152 15.0428C39.2286 15.8694 39.8333 16.9899 39.8333 18.1581C39.8333 19.3264 39.2286 20.4469 38.152 21.2735L29.0001 28.2918Z" fill="white"/>
</svg>
