<svg width="12" height="13" viewBox="0 0 12 13" fill="none" xmlns="http://www.w3.org/2000/svg">
    <g clip-path="url(#clip0)">
        <path d="M2.4001 5.3V4.1C2.4001 3.14522 2.77938 2.22955 3.45451 1.55442C4.12964 0.879285 5.04532 0.5 6.0001 0.5C6.95488 0.5 7.87055 0.879285 8.54568 1.55442C9.22081 2.22955 9.6001 3.14522 9.6001 4.1V5.3H10.2001C10.5184 5.3 10.8236 5.42643 11.0486 5.65147C11.2737 5.87652 11.4001 6.18174 11.4001 6.5V11.3C11.4001 11.6183 11.2737 11.9235 11.0486 12.1485C10.8236 12.3736 10.5184 12.5 10.2001 12.5H1.8001C1.48184 12.5 1.17661 12.3736 0.951569 12.1485C0.726526 11.9235 0.600098 11.6183 0.600098 11.3V6.5C0.600098 5.84 1.1401 5.3 1.8001 5.3H2.4001ZM5.4001 9.338V10.7H6.6001V9.338C6.82887 9.20592 7.00766 9.00204 7.10875 8.75799C7.20984 8.51394 7.22758 8.24335 7.15921 7.98819C7.09084 7.73303 6.94018 7.50756 6.73061 7.34675C6.52104 7.18593 6.26426 7.09877 6.0001 7.09877C5.73594 7.09877 5.47916 7.18593 5.26958 7.34675C5.06001 7.50756 4.90936 7.73303 4.84099 7.98819C4.77262 8.24335 4.79035 8.51394 4.89144 8.75799C4.99253 9.00204 5.17133 9.20592 5.4001 9.338ZM4.2001 4.1V5.3H7.8001V4.1C7.8001 3.62261 7.61046 3.16477 7.27289 2.82721C6.93532 2.48964 6.47749 2.3 6.0001 2.3C5.52271 2.3 5.06487 2.48964 4.72731 2.82721C4.38974 3.16477 4.2001 3.62261 4.2001 4.1Z" fill="#A0AEC0"/>
    </g>
    <defs>
        <clipPath id="clip0">
            <rect width="12" height="12" fill="white" transform="translate(0 0.5)"/>
        </clipPath>
    </defs>
</svg>
