<svg width="58" height="58" viewBox="0 0 58 58" fill="none" xmlns="http://www.w3.org/2000/svg">
    <rect width="58" height="58" rx="7" fill="#D3D3D3"/>
    <g clip-path="url(#clip0)">
        <path d="M23.9271 17.3225H18.1675L21.5284 14.7442L20.2127 13.7354L14.6057 18.0359L20.2201 22.3422L21.5358 21.3334L18.1675 18.7494H23.9271V17.3225Z" fill="white"/>
        <path d="M42.5961 13.7354L41.2805 14.7442L44.6432 17.3225H38.8352V18.7494H44.6432L41.273 21.3334L42.5887 22.3422L48.205 18.0359L42.5961 13.7354Z" fill="white"/>
        <path d="M45.8955 31.3847C45.8211 31.3276 45.7411 31.2777 45.6555 31.2392C44.4496 30.657 43.0744 30.3631 41.6991 30.3631C39.7954 30.3631 37.8935 30.9196 36.442 32.0325L35.1263 33.0427V19.466C35.1263 17.8965 33.4515 16.6123 31.4045 16.6123C29.3574 16.6123 27.6826 17.8965 27.6826 19.466V25.7443C27.0034 25.1051 25.9799 24.6884 24.8205 24.6884C24.0147 24.6884 23.2722 24.891 22.6637 25.2263L14.6487 28.7835C13.5414 29.2772 12.7952 30.1919 12.7952 31.242V35.935C12.7952 41.0375 18.1881 45.1726 24.8428 45.1726C28.066 45.1726 30.9858 44.1966 33.1463 42.6156L33.1482 42.6285L33.3547 42.4701C33.3584 42.4672 33.3622 42.4644 33.364 42.463L45.8955 32.853C46.4259 32.4477 46.4259 31.79 45.8955 31.3847ZM31.8623 41.5826C29.9548 42.9766 27.4612 43.7443 24.8428 43.7443C19.2247 43.7443 14.6561 40.2413 14.6561 35.9336V31.2406C14.6561 30.7383 15.0041 30.2832 15.5884 30.0221L23.7467 26.385C23.97 26.2622 24.3385 26.1139 24.8186 26.1139C25.563 26.1139 26.0282 26.4463 26.2404 26.6446L27.8929 28.1971C28.1423 28.4311 28.5554 28.5196 28.9257 28.4183C29.296 28.3169 29.5435 28.0487 29.5435 27.7462V19.466C29.5435 18.6798 30.3791 18.0392 31.4045 18.0392C32.4298 18.0392 33.2654 18.6798 33.2654 19.466V33.7305C33.2654 34.3369 33.7623 34.8463 34.4601 35.0504C34.7597 35.1374 35.0984 35.0817 35.3254 34.9077L37.7577 33.0427C38.811 32.2351 40.2104 31.7914 41.6991 31.7914C42.5384 31.7914 43.3591 31.9341 44.1072 32.208L31.8623 41.5826Z" fill="white"/>
    </g>
    <defs>
        <clipPath id="clip0">
            <rect width="41" height="31.4369" fill="white" transform="translate(10 13.7354)"/>
        </clipPath>
    </defs>
</svg>
