<svg width="10" height="7" viewBox="0 0 10 7" fill="none" xmlns="http://www.w3.org/2000/svg">
    <path d="M8.2 0.756642C8.39257 0.612213 8.63078 0.542094 8.87089 0.559158C9.111 0.576222 9.3369 0.679323 9.50711 0.849534C9.67732 1.01975 9.78042 1.24564 9.79749 1.48575C9.81455 1.72586 9.74443 1.96407 9.6 2.15664L5.6 6.15664C5.41307 6.33987 5.16175 6.4425 4.9 6.4425C4.63825 6.4425 4.38693 6.33987 4.2 6.15664L0.200002 2.15664C0.0555725 1.96407 -0.014547 1.72586 0.00251711 1.48575C0.0195812 1.24564 0.122683 1.01975 0.292895 0.849534C0.463106 0.679323 0.689003 0.576222 0.929112 0.559158C1.16922 0.542094 1.40743 0.612213 1.6 0.756642L4.9 4.04664L8.2 0.746642V0.756642Z" fill="#A0AEC0"/>
</svg>
