<svg width="20" height="20" viewBox="0 0 20 20" fill="none" xmlns="http://www.w3.org/2000/svg">
    <path d="M15.8333 6.66699C17.214 6.66699 18.3333 5.5477 18.3333 4.16699C18.3333 2.78628 17.214 1.66699 15.8333 1.66699C14.4525 1.66699 13.3333 2.78628 13.3333 4.16699C13.3333 5.5477 14.4525 6.66699 15.8333 6.66699Z" stroke="white" stroke-linecap="round" stroke-linejoin="round"/>
    <path d="M5.83325 12.5C7.21396 12.5 8.33325 11.3807 8.33325 10C8.33325 8.61929 7.21396 7.5 5.83325 7.5C4.45254 7.5 3.33325 8.61929 3.33325 10C3.33325 11.3807 4.45254 12.5 5.83325 12.5Z" stroke="white" stroke-linecap="round" stroke-linejoin="round"/>
    <path d="M15.8333 18.333C17.214 18.333 18.3333 17.2137 18.3333 15.833C18.3333 14.4523 17.214 13.333 15.8333 13.333C14.4525 13.333 13.3333 14.4523 13.3333 15.833C13.3333 17.2137 14.4525 18.333 15.8333 18.333Z" stroke="white" stroke-linecap="round" stroke-linejoin="round"/>
    <path d="M7.9917 11.2578L13.6834 14.5745" stroke="white" stroke-linecap="round" stroke-linejoin="round"/>
    <path d="M13.675 5.4248L7.9917 8.74147" stroke="white" stroke-linecap="round" stroke-linejoin="round"/>
</svg>
