<svg width="53" height="52" viewBox="0 0 53 52" fill="none" xmlns="http://www.w3.org/2000/svg">
    <path d="M42.6402 30.9246L42.7324 30.2909C42.8979 29.1869 42.695 28.0599 42.154 27.0785C41.6131 26.0971 40.7631 25.314 39.7313 24.8463L34.191 22.3074C33.7826 22.1208 33.4148 21.8582 33.1082 21.5341L30.7476 19.0417C30.1997 18.4636 29.6014 17.9335 28.9596 17.4575L23.9857 13.7693L23.5094 8.62655C23.4208 7.67594 22.9963 6.78574 22.3094 6.11026L22.2043 6.00704C21.6294 5.44175 20.8981 5.05475 20.1012 4.89413C19.3043 4.7335 18.4769 4.80632 17.7218 5.10355L16.4318 5.61029C16.243 5.68464 16.0614 5.77536 15.8891 5.88138L10.1562 0.251628C9.99209 0.0905123 9.76955 0 9.5375 0C9.30546 0 9.08291 0.0905123 8.91882 0.251628L0.25632 8.75812C0.0972245 8.91433 0.00551603 9.12472 0.000240818 9.34558C-0.00503439 9.56645 0.076529 9.78083 0.227992 9.94419L4.97345 15.0624L4.89688 15.1376C4.32329 15.702 4.00114 16.4668 4.00114 17.2642C4.00114 18.0616 4.32329 18.8264 4.89688 19.3908C5.18109 19.6702 5.51871 19.8917 5.89036 20.0426C6.262 20.1935 6.66035 20.2708 7.06251 20.2701C7.07345 20.2701 7.08438 20.2695 7.09587 20.2694C7.09069 20.6696 7.16719 21.0669 7.32085 21.4377C7.47451 21.8084 7.70222 22.1452 7.99056 22.4282C8.27474 22.7077 8.61236 22.9292 8.98401 23.0801C9.35566 23.2311 9.75401 23.3084 10.1562 23.3077C10.1671 23.3077 10.1781 23.307 10.189 23.3069C10.184 23.7045 10.2595 24.0991 10.4111 24.4678C10.5627 24.8365 10.7874 25.1719 11.0721 25.4546C11.3568 25.7374 11.6959 25.9617 12.0697 26.1147C12.4434 26.2676 12.8444 26.3461 13.2493 26.3456C13.2602 26.3456 13.2712 26.3449 13.2827 26.3447C13.277 26.8754 13.4145 27.398 13.6811 27.8596C13.9476 28.3212 14.3338 28.7053 14.8005 28.973C15.2671 29.2406 15.7975 29.3822 16.3379 29.3834C16.8783 29.3847 17.4094 29.2454 17.8773 28.9799L19.1201 30.3204L19.2504 40.7232C19.2501 41.2754 19.4047 41.8171 19.6973 42.2887C19.9899 42.7603 20.4092 43.1437 20.9091 43.3967C21.409 43.6497 21.9702 43.7626 22.5311 43.7229C23.0921 43.6833 23.6311 43.4927 24.0889 43.172C24.3097 43.5207 24.6009 43.8213 24.9445 44.0551C25.2882 44.289 25.677 44.4512 26.087 44.5317C26.497 44.6122 26.9194 44.6093 27.3282 44.5233C27.7371 44.4372 28.1236 44.2698 28.4639 44.0313C28.8611 44.6581 29.4793 45.1195 30.2007 45.3274C30.9221 45.5353 31.6962 45.4752 32.3754 45.1586V45.8782C32.3759 46.5588 32.6114 47.219 33.0434 47.7511C33.4755 48.2832 34.0786 48.6557 34.7541 48.8076C35.4296 48.9596 36.1377 48.882 36.7625 48.5877C37.3874 48.2933 37.8921 47.7995 38.1941 47.187L42.2534 51.2088C42.3347 51.2896 42.4316 51.3537 42.5384 51.3974C42.6452 51.4412 42.7597 51.4637 42.8754 51.4637H42.9059C43.0265 51.4596 43.145 51.431 43.2538 51.3797C43.3627 51.3284 43.4595 51.2556 43.5383 51.1658L52.2883 41.193C52.4342 41.0267 52.5098 40.8118 52.4995 40.5926C52.4892 40.3733 52.3938 40.1662 52.233 40.0138L42.6402 30.9246ZM18.3718 6.69916C18.8089 6.52707 19.2879 6.48488 19.7492 6.57783C20.2105 6.67079 20.6339 6.89479 20.9667 7.22201L21.0716 7.32512C21.4693 7.71622 21.7151 8.23165 21.7664 8.78207L22.0588 11.9398L20.6891 10.5949L20.6563 10.5626C20.5539 10.4621 20.4277 10.3881 20.289 10.3473C20.1503 10.3065 20.0034 10.3002 19.8616 10.3289H17.6942C17.311 10.3289 16.9397 10.1978 16.6442 9.95814C16.3487 9.7185 16.1474 9.38528 16.0749 9.01573C16.0025 8.64618 16.0633 8.26338 16.247 7.93311C16.4308 7.60283 16.7259 7.3457 17.0817 7.2059L18.3718 6.69916ZM6.13446 18.1751C5.88868 17.9332 5.75065 17.6054 5.75065 17.2637C5.75065 16.922 5.88868 16.5942 6.13446 16.3523L9.22802 13.3144C9.47417 13.0726 9.80802 12.9368 10.1561 12.9368C10.5042 12.9368 10.8381 13.0726 11.0842 13.3144C11.3304 13.5561 11.4687 13.8839 11.4687 14.2257C11.4687 14.5676 11.3304 14.8954 11.0842 15.1371L7.99066 18.1752C7.74429 18.4165 7.41052 18.552 7.06254 18.552C6.71456 18.552 6.3808 18.4164 6.13446 18.1751ZM9.22802 21.213C8.98224 20.9711 8.84421 20.6434 8.84421 20.3017C8.84421 19.9599 8.98224 19.6322 9.22802 19.3903L12.3217 16.3524C12.5678 16.1107 12.9017 15.9749 13.2498 15.9749C13.5979 15.9749 13.9318 16.1107 14.1779 16.3524C14.424 16.5941 14.5623 16.922 14.5623 17.2638C14.5623 17.6056 14.424 17.9335 14.1779 18.1752L11.0842 21.213C10.8379 21.4544 10.5041 21.5899 10.1561 21.5899C9.80815 21.5899 9.47438 21.4544 9.22802 21.213ZM13.2497 24.6285C12.9901 24.6285 12.7364 24.5529 12.5205 24.4113C12.3047 24.2697 12.1364 24.0684 12.0371 23.8329C11.9378 23.5973 11.9118 23.3382 11.9624 23.0881C12.0131 22.8381 12.1381 22.6085 12.3217 22.4282L15.4153 19.3904C15.6614 19.1487 15.9953 19.0129 16.3434 19.0129C16.6915 19.0129 17.0253 19.1487 17.2715 19.3904C17.5176 19.6321 17.6559 19.9599 17.6559 20.3018C17.6559 20.6436 17.5176 20.9714 17.2715 21.2131L14.1779 24.251C14.0562 24.371 13.9116 24.4661 13.7523 24.5308C13.5929 24.5955 13.4221 24.6285 13.2497 24.628V24.6285ZM16.3433 27.6664C16.0837 27.6664 15.83 27.5908 15.6142 27.4491C15.3983 27.3075 15.2301 27.1062 15.1308 26.8707C15.0314 26.6352 15.0054 26.3761 15.0561 26.1261C15.1067 25.8761 15.2317 25.6464 15.4153 25.4662L18.5088 22.4282C18.755 22.1865 19.0888 22.0507 19.4369 22.0507C19.785 22.0507 20.1189 22.1865 20.365 22.4282C20.6112 22.6699 20.7495 22.9978 20.7495 23.3396C20.7495 23.6814 20.6112 24.0093 20.365 24.251L17.2715 27.2888C17.1498 27.4089 17.0052 27.5041 16.8459 27.5688C16.6866 27.6336 16.5157 27.6667 16.3433 27.6663V27.6664ZM36.7504 45.8786C36.7504 46.2205 36.6121 46.5483 36.366 46.79C36.1198 47.0317 35.786 47.1675 35.4379 47.1675C35.0898 47.1675 34.756 47.0317 34.5098 46.79C34.2637 46.5483 34.1254 46.2205 34.1254 45.8786V37.7158C34.1254 37.488 34.0332 37.2694 33.8691 37.1083C33.705 36.9471 33.4825 36.8566 33.2504 36.8566C33.0183 36.8566 32.7958 36.9471 32.6317 37.1083C32.4676 37.2694 32.3754 37.488 32.3754 37.7158V42.4417C32.3754 42.7835 32.2371 43.1113 31.991 43.353C31.7448 43.5947 31.411 43.7305 31.0629 43.7305C30.7148 43.7305 30.381 43.5947 30.1348 43.353C29.8887 43.1113 29.7504 42.7835 29.7504 42.4417V36.8566C29.7504 36.6287 29.6582 36.4102 29.4941 36.249C29.33 36.0879 29.1075 35.9974 28.8754 35.9974C28.6433 35.9974 28.4208 36.0879 28.2567 36.249C28.0926 36.4102 28.0004 36.6287 28.0004 36.8566V41.5824C28.0004 41.9243 27.8621 42.2521 27.616 42.4938C27.3698 42.7355 27.036 42.8713 26.6879 42.8713C26.3398 42.8713 26.006 42.7355 25.7598 42.4938C25.5137 42.2521 25.3754 41.9243 25.3754 41.5824V35.9974C25.3754 35.7695 25.2832 35.5509 25.1191 35.3898C24.955 35.2286 24.7325 35.1381 24.5004 35.1381C24.2683 35.1381 24.0458 35.2286 23.8817 35.3898C23.7176 35.5509 23.6254 35.7695 23.6254 35.9974V40.7232C23.6254 41.065 23.4871 41.3928 23.241 41.6346C22.9948 41.8763 22.661 42.0121 22.3129 42.0121C21.9648 42.0121 21.6309 41.8763 21.3848 41.6346C21.1387 41.3928 21.0004 41.065 21.0004 40.7232L20.8657 29.9706C20.8628 29.7608 20.7817 29.5594 20.6379 29.4042L19.1863 27.8386L21.6019 25.4657C22.0324 25.0435 22.325 24.5049 22.4423 23.9186C22.5596 23.3324 22.4963 22.7251 22.2605 22.1743C22.0246 21.6236 21.627 21.1543 21.1183 20.8265C20.6096 20.4987 20.013 20.3273 19.4046 20.334C19.4046 20.3233 19.4054 20.3126 19.4054 20.3018C19.4056 19.9042 19.3254 19.5105 19.1694 19.1436C19.0135 18.7767 18.785 18.4438 18.497 18.1642C18.2091 17.8847 17.8675 17.664 17.4921 17.5151C17.1167 17.3662 16.7149 17.2919 16.3101 17.2966C16.3152 16.8963 16.2386 16.499 16.085 16.1282C15.9313 15.7574 15.7036 15.4205 15.4153 15.1374C15.127 14.8543 14.784 14.6307 14.4064 14.4798C14.0287 14.3289 13.6242 14.2538 13.2165 14.2588C13.2236 13.6612 13.0491 13.0752 12.7154 12.5755C12.3817 12.0758 11.9039 11.6852 11.343 11.4535C10.782 11.2217 10.1635 11.1595 9.56641 11.2746C8.96929 11.3898 8.42068 11.6771 7.99066 12.0999L6.21288 13.8455L2.08452 9.3931L9.53788 2.0744L14.6957 7.13931C14.595 7.32464 14.5123 7.51882 14.4485 7.7193C14.2904 8.21887 14.2541 8.74793 14.3425 9.26381C14.431 9.77969 14.6416 10.2679 14.9575 10.6892C15.2734 11.1104 15.6857 11.4528 16.1612 11.6888C16.6366 11.9248 17.1619 12.0477 17.6946 12.0477H19.6937L22.531 14.8338C22.5569 14.859 22.5845 14.8825 22.6134 14.9043C22.6166 14.9067 22.6194 14.9096 22.6225 14.912L27.9058 18.8281C28.4661 19.2437 28.9883 19.7064 29.4667 20.2112L31.8273 22.7036C32.2871 23.19 32.8386 23.5841 33.4513 23.8642L38.9912 26.403C39.6819 26.7159 40.2509 27.24 40.613 27.897C40.9751 28.5539 41.1109 29.3083 41 30.0473L40.9519 30.3784H37.6254C37.3933 30.3784 37.1708 30.4689 37.0067 30.63C36.8426 30.7912 36.7504 31.0097 36.7504 31.2376V45.8786ZM42.8304 49.3392L38.5004 45.049V32.0973H41.3575L50.4223 40.686L42.8304 49.3392Z" fill="#EE6F57"/>
</svg>
